<svg width="88" height="88" viewBox="0 0 88 88" fill="none" xmlns="http://www.w3.org/2000/svg">
<g filter="url(#filter0_d_85_3653)">
<circle cx="44" cy="40" r="40" fill="#666666"/>
<rect x="33" y="29" width="22" height="22" rx="2" stroke="white" stroke-width="2"/>
<path d="M27 40L61 40" stroke="white" stroke-width="2" stroke-linecap="round"/>
<path d="M64 27.5V25V22C64 20.8954 63.1046 20 62 20H59H56.5M31.5 20H29H26C24.8954 20 24 20.8954 24 22V25V27.5M24 52.5V55V58C24 59.1046 24.8954 60 26 60H29H31.5M56.5 60H59H62C63.1046 60 64 59.1046 64 58V55V52.5" stroke="white" stroke-width="2" stroke-linecap="round"/>
</g>
<defs>
<filter id="filter0_d_85_3653" x="0" y="0" width="88" height="88" filterUnits="userSpaceOnUse" color-interpolation-filters="sRGB">
<feFlood flood-opacity="0" result="BackgroundImageFix"/>
<feColorMatrix in="SourceAlpha" type="matrix" values="0 0 0 0 0 0 0 0 0 0 0 0 0 0 0 0 0 0 127 0" result="hardAlpha"/>
<feOffset dy="4"/>
<feGaussianBlur stdDeviation="2"/>
<feComposite in2="hardAlpha" operator="out"/>
<feColorMatrix type="matrix" values="0 0 0 0 0 0 0 0 0 0 0 0 0 0 0 0 0 0 0.16 0"/>
<feBlend mode="normal" in2="BackgroundImageFix" result="effect1_dropShadow_85_3653"/>
<feBlend mode="normal" in="SourceGraphic" in2="effect1_dropShadow_85_3653" result="shape"/>
</filter>
</defs>
</svg>
